<?xml version="1.0" standalone="no"?>
<!DOCTYPE svg PUBLIC "-//W3C//DTD SVG 20010904//EN"
 "http://www.w3.org/TR/2001/REC-SVG-20010904/DTD/svg10.dtd">
<svg version="1.0" xmlns="http://www.w3.org/2000/svg"
 width="228.000000pt" height="228.000000pt" viewBox="0 0 228.000000 228.000000"
 preserveAspectRatio="xMidYMid meet">
<metadata>
Created by potrace 1.11, written by Peter Selinger 2001-2013
</metadata>
<g transform="translate(0.000000,228.000000) scale(0.100000,-0.100000)"
fill="#000000" stroke="none">
<path d="M603 1481 c-63 -26 -96 -50 -126 -91 -21 -29 -33 -38 -49 -35 -53 11
-159 19 -228 19 -122 -1 -192 -51 -196 -139 -3 -67 57 -155 106 -155 27 0 29
9 9 47 -41 81 11 162 126 195 38 11 180 16 189 7 2 -2 6 -29 7 -59 2 -30 15
-86 30 -125 38 -97 36 -186 -7 -247 -70 -101 -229 -114 -286 -24 -26 42 -18
111 17 146 l25 25 0 -23 c0 -43 62 -41 106 3 31 31 33 81 4 90 -62 20 -159
-36 -195 -111 -63 -132 24 -235 194 -230 110 3 149 18 210 78 85 83 101 204
44 328 -20 45 -29 80 -29 113 1 26 4 46 7 44 3 -1 13 4 23 12 22 18 31 8 15
-17 -17 -27 -3 -69 29 -85 34 -18 99 -14 140 7 l32 16 -21 -52 c-11 -29 -34
-84 -49 -123 -16 -38 -32 -85 -35 -103 -4 -27 -2 -34 19 -43 14 -7 36 -9 49
-5 28 7 45 36 22 36 -20 0 -20 4 16 93 31 75 61 109 80 90 6 -6 3 -25 -8 -49
-9 -21 -17 -41 -18 -44 -1 -3 -7 -18 -13 -33 -7 -16 -12 -39 -12 -52 0 -51 82
-58 130 -11 l25 23 22 -24 c55 -58 176 -3 224 102 52 112 -9 186 -115 141 -50
-21 -93 -72 -118 -138 -14 -41 -29 -63 -45 -71 -40 -18 -43 3 -12 78 16 39 29
82 29 97 0 34 -30 52 -75 44 l-33 -6 14 37 c18 53 17 71 -6 83 -14 7 -20 21
-20 45 0 42 -38 90 -85 105 -43 14 -113 10 -162 -9z m151 -21 c15 -5 33 -25
42 -43 15 -32 15 -36 -5 -75 -22 -43 -45 -60 -88 -68 -33 -6 -60 3 -67 22 -9
24 24 83 55 100 30 15 39 34 15 34 -7 0 -39 -11 -71 -25 -32 -14 -59 -24 -61
-22 -3 2 6 16 18 32 37 48 106 67 162 45z m420 -277 c15 -39 -61 -198 -94
-198 -35 0 4 137 53 193 24 26 33 28 41 5z"/>
<path d="M1617 1338 c-2 -7 2 -20 9 -29 12 -13 6 -35 -41 -151 -30 -75 -56
-148 -59 -162 -8 -45 43 -72 84 -46 12 8 13 13 3 29 -10 16 -7 32 19 96 30 74
60 107 79 88 6 -6 -2 -37 -21 -81 -16 -39 -30 -82 -30 -96 0 -45 58 -60 111
-29 26 16 29 16 47 0 26 -23 63 -21 103 6 l33 22 23 -22 c27 -28 59 -29 97 -3
30 19 30 19 43 -1 16 -21 53 -25 86 -8 37 19 67 52 67 72 0 20 -1 20 -23 -1
-24 -22 -57 -30 -57 -13 0 5 18 53 40 107 22 54 38 100 35 102 -10 10 -142 11
-172 1 -42 -14 -106 -86 -123 -141 -16 -52 -37 -78 -62 -78 -23 0 -23 8 6 80
33 82 40 118 26 135 -15 18 -71 20 -88 3 -16 -16 -15 -28 3 -28 22 0 19 -21
-19 -103 -23 -51 -41 -77 -56 -82 -37 -12 -40 7 -9 78 37 88 38 123 3 139 -19
9 -33 9 -56 0 -24 -9 -29 -8 -25 3 3 7 11 32 18 55 12 38 11 44 -6 56 -23 17
-82 18 -88 2z m553 -150 c0 -7 -14 -50 -32 -95 -25 -65 -38 -85 -59 -94 -36
-14 -51 -4 -46 30 6 37 52 126 79 151 24 22 58 27 58 8z"/>
<path d="M1926 1328 c-30 -42 25 -88 64 -53 20 18 21 35 1 59 -19 23 -47 20
-65 -6z"/>
<path d="M1291 1213 c-6 -12 -5 -20 6 -28 15 -12 9 -34 -66 -214 -17 -40 -33
-84 -35 -97 -8 -44 39 -68 85 -43 19 10 19 12 5 28 -14 16 -14 21 0 57 15 38
17 39 54 36 117 -11 245 181 173 260 -20 22 -43 23 -90 3 -33 -14 -38 -14 -45
0 -12 21 -74 20 -87 -2z m163 -69 c-3 -64 -73 -164 -115 -164 -10 0 -19 3 -19
8 0 22 65 160 82 175 31 26 53 18 52 -19z"/>
</g>
</svg>
